<svg xmlns="http://www.w3.org/2000/svg" width="138" height="44" viewBox="0 0 138 44" fill="none">
    <g clip-path="url(#clip0_10707_370)">
        <path
            d="M33.8134 13.5588H41.0183C45.8335 13.5588 48.794 16.1277 48.794 20.2307C48.794 24.4764 45.7265 26.9739 41.0183 26.9739H36.6312V34.7518H33.7777C33.8134 34.7518 33.8134 13.5588 33.8134 13.5588ZM36.7025 15.9136V24.6905H40.947C44.0858 24.6905 45.9405 23.0136 45.9405 20.3021C45.9405 17.6619 44.0501 15.9136 41.054 15.9136C41.0183 15.9136 36.7025 15.9136 36.7025 15.9136Z"
            fill="white" />
        <path
            d="M50.8271 23.5845C51.3621 19.9809 53.7518 17.8046 57.7823 17.8046C62.1695 17.8046 64.3096 20.3734 64.3096 24.2624V30.7558C64.3096 32.6468 64.4523 33.8242 64.916 34.7518H62.0269C61.7058 34.1096 61.5988 33.1463 61.5632 32.1473C60.1364 34.2523 57.9607 35.1086 55.9276 35.1086C52.5035 35.1086 50.2207 33.5031 50.2207 30.399C50.2207 28.1156 51.4691 26.4744 53.8945 25.6895C56.1416 24.9402 58.3887 24.7619 61.5632 24.7262V24.3694C61.5632 21.7292 60.3148 20.2664 57.497 20.2664C55.1072 20.2664 53.8945 21.5865 53.5022 23.6915H50.7914V23.5845H50.8271ZM56.213 32.6825C59.2804 32.6825 61.5632 30.292 61.5632 27.4734V26.6885C54.5722 26.7242 53.0028 28.2583 53.0028 30.2563C53.0028 31.8262 54.2869 32.6825 56.213 32.6825Z"
            fill="white" />
        <path
            d="M67.9478 20.3734H65.6293V18.1614H67.9121V13.6659H70.6585V18.197H74.261V20.4091H70.6585V29.9709C70.6585 31.9332 71.2649 32.8965 73.6903 32.8965H74.2254V34.8589C73.9043 35.0016 73.2266 35.0729 72.4419 35.0729C69.3745 35.0729 67.9121 33.4317 67.9121 29.9352L67.9478 20.3734Z"
            fill="white" />
        <path d="M75.6521 12.3458H78.3985V34.7518H75.6521V12.3458Z" fill="white" />
        <path
            d="M80.6456 41.6734V39.5684H81.466C83.4634 39.5684 84.0341 39.1402 85.6749 35.4654L86.2099 34.1809L79.4686 18.197H82.4291L86.9232 29.0789L87.6723 31.291L88.4213 29.0789L92.7728 18.197H95.5549L87.8863 36.8568C86.2455 40.8528 85.1398 41.8875 82.322 41.8875C81.6087 41.8875 80.9667 41.7448 80.6456 41.6734Z"
            fill="white" />
        <path
            d="M95.8046 20.3734H93.5219V18.1614H95.8046V13.6659H98.551V18.197H102.154V20.4091H98.551V29.9709C98.551 31.9332 99.1574 32.8965 101.583 32.8965H102.118V34.8589C101.797 35.0016 101.119 35.0729 100.334 35.0729C97.267 35.0729 95.8046 33.4317 95.8046 29.9352V20.3734Z"
            fill="white" />
        <path
            d="M103.509 12.3458H106.255V15.985H103.509V12.3458ZM103.509 18.197H106.255V34.7518H103.509V18.197Z"
            fill="white" />
        <path
            d="M120.273 23.8699C119.809 21.3367 118.169 20.1593 115.957 20.1593C112.89 20.1593 111.285 22.407 111.285 26.4744C111.285 30.506 112.961 32.7538 116.028 32.7538C118.24 32.7538 119.809 31.5764 120.344 29.2216H123.091C122.342 33.289 119.631 35.0729 115.993 35.0729C111.285 35.0729 108.502 31.8261 108.502 26.4744C108.502 20.9086 111.356 17.8402 115.957 17.8402C119.56 17.8402 122.449 19.9096 122.948 23.9412H120.237V23.8699H120.273Z"
            fill="white" />
        <path
            d="M138 30.0423C138 33.1106 135.254 35.0729 131.366 35.0729C127.442 35.0729 124.731 33.182 124.089 29.293H126.836C127.193 31.5764 128.94 32.8608 131.473 32.8608C133.934 32.8608 135.254 31.7548 135.254 30.2206C135.254 25.7252 124.624 29.4357 124.624 22.6211C124.624 20.088 126.586 17.8046 130.617 17.8046C134.184 17.8046 136.823 19.4815 137.358 23.5845H134.612C134.183 21.0156 132.792 20.0523 130.438 20.0523C128.37 20.0523 127.193 21.0513 127.193 22.4428C127.3 27.0096 138 23.2277 138 30.0423Z"
            fill="white" />
        <path
            d="M12.3055 43.6001C11.5921 43.6001 10.8788 43.4217 10.2368 43.0292L3.49548 38.8905C1.35539 37.5704 0 35.18 0 32.6468V8.77794C0 7.31513 0.749031 6.03071 2.03308 5.31714C3.31714 4.60357 4.8152 4.63925 6.02791 5.3885L12.7692 9.49151C14.9449 10.8116 16.2647 13.2021 16.2647 15.7352V39.6041C16.2647 41.0669 15.5156 42.3513 14.2316 43.0649C13.6609 43.4217 12.9832 43.6001 12.3055 43.6001ZM3.99483 7.60056C3.70949 7.60056 3.49548 7.70759 3.38847 7.74327C3.21013 7.8503 2.78211 8.17141 2.78211 8.77794V32.6468C2.78211 34.2166 3.60248 35.7151 4.95787 36.5357L11.6991 40.6387C12.2342 40.9599 12.7335 40.7815 12.9119 40.6744C13.0902 40.5674 13.5182 40.2463 13.5182 39.6398V15.7709C13.5182 14.2011 12.6979 12.7026 11.3425 11.882L4.60119 7.77895C4.38718 7.63623 4.17317 7.60056 3.99483 7.60056Z"
            fill="#57DC2F" />
        <path
            d="M19.0824 31.8619C18.3691 31.8619 17.6557 31.6835 17.0137 31.291L10.2724 27.1523C8.09664 25.8322 6.77692 23.4418 6.77692 20.9086V4.99602C6.77692 3.53321 7.52595 2.24879 8.81 1.53522C10.0941 0.821649 11.5921 0.857328 12.8048 1.60657L19.5461 5.70959C21.7219 7.02969 23.0416 9.42014 23.0416 11.9533V27.8659C23.0416 29.3287 22.2926 30.6131 21.0085 31.3267C20.4021 31.6835 19.7601 31.8619 19.0824 31.8619ZM10.7361 3.78296C10.4507 3.78296 10.2367 3.88999 10.1297 3.92567C9.95138 4.0327 9.52336 4.35381 9.52336 4.96034V20.8729C9.52336 22.4428 10.3437 23.9412 11.6991 24.7619L18.4404 28.8649C18.9754 29.186 19.4748 29.0076 19.6531 28.9005C19.8315 28.7935 20.2595 28.4724 20.2595 27.8659V11.9533C20.2595 10.3835 19.4391 8.88497 18.0837 8.06436L11.3424 3.96135C11.1284 3.81863 10.9144 3.78296 10.7361 3.78296Z"
            fill="#57DC2F" />
    </g>
    <defs>
        <clipPath id="clip0_10707_370">
            <rect width="138" height="44" fill="white" />
        </clipPath>
    </defs>
</svg>